<?xml version="1.0" standalone="no"?>
<!DOCTYPE svg PUBLIC "-//W3C//DTD SVG 20010904//EN"
 "http://www.w3.org/TR/2001/REC-SVG-20010904/DTD/svg10.dtd">
<svg version="1.0" xmlns="http://www.w3.org/2000/svg"
 width="512.000000pt" height="512.000000pt" viewBox="0 0 512.000000 512.000000"
 preserveAspectRatio="xMidYMid meet">
<metadata>
Created by potrace 1.11, written by Peter Selinger 2001-2013
</metadata>
<g transform="translate(0.000000,512.000000) scale(0.100000,-0.100000)"
fill="#000000" stroke="none">
<path d="M1479 5075 c-157 -26 -307 -86 -423 -169 -177 -126 -495 -525 -667
-836 -319 -578 -448 -1249 -358 -1865 107 -741 496 -1361 1105 -1761 802 -529
1908 -553 2841 -64 244 128 493 302 705 494 180 163 257 270 317 441 34 95 46
152 66 300 7 61 21 153 29 205 9 52 18 165 22 250 18 442 -92 857 -314 1189
-99 147 -154 210 -369 417 -107 103 -243 244 -301 312 -255 300 -336 378 -449
436 -78 39 -156 56 -260 56 l-94 0 -102 68 c-419 280 -873 468 -1270 526 -128
19 -369 19 -478 1z m448 -286 c340 -47 782 -242 1180 -520 l112 -79 53 11 c74
14 217 14 253 0 40 -16 228 -203 390 -386 140 -159 238 -267 427 -469 153
-165 219 -254 295 -404 161 -316 215 -695 158 -1092 -8 -52 -16 -135 -20 -183
-14 -199 -76 -348 -195 -468 -114 -114 -237 -174 -412 -200 -99 -14 -298 -7
-418 16 -120 23 -314 81 -385 116 -121 59 -445 336 -560 478 -30 37 -73 105
-96 152 -69 142 -157 213 -440 355 -274 137 -392 219 -441 311 -14 26 -58 154
-98 283 -119 390 -181 583 -200 620 -28 55 -79 97 -154 127 -39 16 -77 39 -88
53 -10 14 -45 89 -77 167 -66 160 -120 260 -192 354 -43 57 -48 70 -49 114 0
73 35 205 77 293 69 142 219 270 378 322 119 39 337 52 502 29z"/>
</g>
</svg>
